<svg width="137" height="51" viewBox="0 0 137 51" fill="none" xmlns="http://www.w3.org/2000/svg">
<g filter="url(#filter0_d_668_3155)">
<path d="M133 43.2969C133 45.5233 131.195 47.3281 128.969 47.3281H8.03125C5.80485 47.3281 4 45.5233 4 43.2969V18.3027C4 16.0763 5.80485 14.2715 8.03125 14.2715H93.2088C94.6348 14.2715 95.9547 13.5181 96.6799 12.2903L99.8154 6.98145C100.541 5.75372 101.86 5.00011 103.286 5H127.84C129.761 5.00004 131.416 6.35627 131.793 8.24023L132.922 13.8798C132.974 14.1403 133 14.4053 133 14.6709V43.2969Z" fill="url(#paint0_linear_668_3155)"/>
</g>
<defs>
<filter id="filter0_d_668_3155" x="0.137724" y="0.365269" width="136.725" height="50.0527" filterUnits="userSpaceOnUse" color-interpolation-filters="sRGB">
<feFlood flood-opacity="0" result="BackgroundImageFix"/>
<feColorMatrix in="SourceAlpha" type="matrix" values="0 0 0 0 0 0 0 0 0 0 0 0 0 0 0 0 0 0 127 0" result="hardAlpha"/>
<feOffset dy="-0.772455"/>
<feGaussianBlur stdDeviation="1.93114"/>
<feComposite in2="hardAlpha" operator="out"/>
<feColorMatrix type="matrix" values="0 0 0 0 0 0 0 0 0 0 0 0 0 0 0 0 0 0 0.1 0"/>
<feBlend mode="normal" in2="BackgroundImageFix" result="effect1_dropShadow_668_3155"/>
<feBlend mode="normal" in="SourceGraphic" in2="effect1_dropShadow_668_3155" result="shape"/>
</filter>
<linearGradient id="paint0_linear_668_3155" x1="68.5" y1="5" x2="68.5" y2="47.3281" gradientUnits="userSpaceOnUse">
<stop stop-color="#CCAB81"/>
<stop offset="1" stop-color="#A6845A"/>
</linearGradient>
</defs>
</svg>
